<mxfile host="app.diagrams.net" modified="2023-05-30T17:06:28.141Z" agent="Mozilla/5.0 (Windows NT 10.0; Win64; x64) AppleWebKit/537.36 (KHTML, like Gecko) Chrome/113.0.0.0 Safari/537.36" etag="z0hNAGfzGYDCiz1xs0TF" version="21.3.5" type="device">
  <diagram name="Página-1" id="EZdIsHgA3YZl_hDXVwiF">
    <mxGraphModel dx="2876" dy="1137" grid="1" gridSize="10" guides="1" tooltips="1" connect="1" arrows="1" fold="1" page="1" pageScale="1" pageWidth="827" pageHeight="1169" math="0" shadow="0">
      <root>
        <mxCell id="0" />
        <mxCell id="1" parent="0" />
        <mxCell id="qGE8L2qU_3SqkjfWgBsS-3" value="" style="edgeStyle=orthogonalEdgeStyle;rounded=0;orthogonalLoop=1;jettySize=auto;html=1;" edge="1" parent="1" source="qGE8L2qU_3SqkjfWgBsS-1" target="qGE8L2qU_3SqkjfWgBsS-2">
          <mxGeometry relative="1" as="geometry" />
        </mxCell>
        <mxCell id="qGE8L2qU_3SqkjfWgBsS-1" value="INICIO" style="ellipse;whiteSpace=wrap;html=1;" vertex="1" parent="1">
          <mxGeometry x="345" y="40" width="120" height="80" as="geometry" />
        </mxCell>
        <mxCell id="qGE8L2qU_3SqkjfWgBsS-5" value="" style="edgeStyle=orthogonalEdgeStyle;rounded=0;orthogonalLoop=1;jettySize=auto;html=1;" edge="1" parent="1" source="qGE8L2qU_3SqkjfWgBsS-2">
          <mxGeometry relative="1" as="geometry">
            <mxPoint x="405" y="290" as="targetPoint" />
          </mxGeometry>
        </mxCell>
        <mxCell id="qGE8L2qU_3SqkjfWgBsS-2" value="opcion (char)" style="rounded=0;whiteSpace=wrap;html=1;" vertex="1" parent="1">
          <mxGeometry x="345" y="160" width="120" height="60" as="geometry" />
        </mxCell>
        <mxCell id="qGE8L2qU_3SqkjfWgBsS-8" value="" style="edgeStyle=orthogonalEdgeStyle;rounded=0;orthogonalLoop=1;jettySize=auto;html=1;" edge="1" parent="1" target="qGE8L2qU_3SqkjfWgBsS-6">
          <mxGeometry relative="1" as="geometry">
            <mxPoint x="340" y="330" as="sourcePoint" />
          </mxGeometry>
        </mxCell>
        <mxCell id="qGE8L2qU_3SqkjfWgBsS-9" value="" style="edgeStyle=orthogonalEdgeStyle;rounded=0;orthogonalLoop=1;jettySize=auto;html=1;" edge="1" parent="1" target="qGE8L2qU_3SqkjfWgBsS-7">
          <mxGeometry relative="1" as="geometry">
            <mxPoint x="370" y="370" as="sourcePoint" />
            <Array as="points">
              <mxPoint x="370" y="430" />
              <mxPoint x="300" y="430" />
            </Array>
          </mxGeometry>
        </mxCell>
        <mxCell id="qGE8L2qU_3SqkjfWgBsS-11" value="" style="edgeStyle=orthogonalEdgeStyle;rounded=0;orthogonalLoop=1;jettySize=auto;html=1;" edge="1" parent="1" target="qGE8L2qU_3SqkjfWgBsS-10">
          <mxGeometry relative="1" as="geometry">
            <mxPoint x="405" y="370" as="sourcePoint" />
            <Array as="points">
              <mxPoint x="405" y="371" />
              <mxPoint x="430" y="371" />
            </Array>
          </mxGeometry>
        </mxCell>
        <mxCell id="qGE8L2qU_3SqkjfWgBsS-22" value="" style="edgeStyle=orthogonalEdgeStyle;rounded=0;orthogonalLoop=1;jettySize=auto;html=1;" edge="1" parent="1" source="qGE8L2qU_3SqkjfWgBsS-6" target="qGE8L2qU_3SqkjfWgBsS-21">
          <mxGeometry relative="1" as="geometry" />
        </mxCell>
        <mxCell id="qGE8L2qU_3SqkjfWgBsS-6" value="Música" style="rhombus;whiteSpace=wrap;html=1;" vertex="1" parent="1">
          <mxGeometry x="40" y="400" width="130" height="130" as="geometry" />
        </mxCell>
        <mxCell id="qGE8L2qU_3SqkjfWgBsS-7" value="Películas" style="rhombus;whiteSpace=wrap;html=1;" vertex="1" parent="1">
          <mxGeometry x="220" y="510" width="120" height="120" as="geometry" />
        </mxCell>
        <mxCell id="qGE8L2qU_3SqkjfWgBsS-10" value="Series" style="rhombus;whiteSpace=wrap;html=1;" vertex="1" parent="1">
          <mxGeometry x="370" y="560" width="120" height="120" as="geometry" />
        </mxCell>
        <mxCell id="qGE8L2qU_3SqkjfWgBsS-12" value="Libros" style="rhombus;whiteSpace=wrap;html=1;" vertex="1" parent="1">
          <mxGeometry x="560" y="490" width="120" height="120" as="geometry" />
        </mxCell>
        <mxCell id="qGE8L2qU_3SqkjfWgBsS-15" value="Comida" style="rhombus;whiteSpace=wrap;html=1;" vertex="1" parent="1">
          <mxGeometry x="710" y="400" width="130" height="140" as="geometry" />
        </mxCell>
        <mxCell id="qGE8L2qU_3SqkjfWgBsS-17" value="" style="edgeStyle=orthogonalEdgeStyle;rounded=0;orthogonalLoop=1;jettySize=auto;html=1;" edge="1" parent="1" source="qGE8L2qU_3SqkjfWgBsS-16" target="qGE8L2qU_3SqkjfWgBsS-15">
          <mxGeometry relative="1" as="geometry">
            <Array as="points">
              <mxPoint x="805" y="310" />
            </Array>
          </mxGeometry>
        </mxCell>
        <mxCell id="qGE8L2qU_3SqkjfWgBsS-20" value="" style="edgeStyle=orthogonalEdgeStyle;rounded=0;orthogonalLoop=1;jettySize=auto;html=1;" edge="1" parent="1" source="qGE8L2qU_3SqkjfWgBsS-16" target="qGE8L2qU_3SqkjfWgBsS-12">
          <mxGeometry relative="1" as="geometry" />
        </mxCell>
        <mxCell id="qGE8L2qU_3SqkjfWgBsS-16" value="&quot;Elige una opción&quot;" style="shape=hexagon;perimeter=hexagonPerimeter2;whiteSpace=wrap;html=1;fixedSize=1;" vertex="1" parent="1">
          <mxGeometry x="340" y="290" width="130" height="80" as="geometry" />
        </mxCell>
        <mxCell id="qGE8L2qU_3SqkjfWgBsS-21" value="" style="shape=document;whiteSpace=wrap;html=1;boundedLbl=1;" vertex="1" parent="1">
          <mxGeometry x="-260" y="610" width="120" height="80" as="geometry" />
        </mxCell>
      </root>
    </mxGraphModel>
  </diagram>
</mxfile>
